<svg xmlns="http://www.w3.org/2000/svg"  viewBox="0 0 512 512" width="64px" height="64px"><path fill="#d0dce7" d="M381,404.75H131c0-18.588,0-128.402,0-140c0-13.81,11.19-25,25-25c11.101,0,188.899,0,200,0 c13.81,0,25,11.19,25,25C381,276.408,381,386.06,381,404.75z"/><circle cx="256" cy="319.75" r="30" fill="#fff"/><circle cx="256" cy="169.75" r="70" fill="#ffe2b6"/><circle cx="431" cy="114.75" r="35" fill="#59d9a4"/><circle cx="86" cy="149.75" r="25" fill="#59d9a4"/><path fill="#e83a70" d="M426,364.75c11.05,0,20,8.95,20,20c0,5.52-2.24,10.52-5.86,14.14 c-3.62,3.62-8.62,5.86-14.14,5.86h-45v-40H426z"/><path fill="#e83a70" d="M131,364.75v40H86c-5.52,0-10.52-2.24-14.14-5.86c-3.62-3.62-5.86-8.62-5.86-14.14 c0-11.05,8.95-20,20-20H131z"/><path fill="#ff5987" d="M415,318.25c11.25,19.99,11.37,38.84,11,46.5h-45v-80C387.74,288.42,403.76,298.29,415,318.25z"/><path fill="#ff5987" d="M131,284.75v80H86c-0.37-7.66-0.25-26.51,11-46.5C108.24,298.29,124.26,288.42,131,284.75z"/><path fill="#c86d36" d="M486,427.25c0,12.43-10.07,22.5-22.5,22.5h-415c-12.533,0-22.5-10.179-22.5-22.5 c0-12.43,10.07-22.5,22.5-22.5c60.759,0,363.439,0,415,0C475.915,404.75,486,414.81,486,427.25z"/><circle cx="453.5" cy="257.25" r="7.5"/><circle cx="368.5" cy="172.25" r="7.5"/><circle cx="346" cy="64.75" r="7.5"/><circle cx="158.5" cy="77.25" r="7.5"/><circle cx="68.5" cy="257.25" r="7.5"/><path d="M463.5,399.75h-17.503c3.245-4.305,5.003-9.518,5.003-15c0-12.039-8.554-22.115-19.902-24.477 c-0.129-32.306-17.193-62.017-45.098-78.43V264.75c0-16.542-13.458-30-30-30h-62.656c22.48-12.966,37.656-37.236,37.656-65 c0-41.355-33.645-75-75-75c-41.355,0-75,33.645-75,75c0,27.764,15.176,52.034,37.657,65H156c-16.542,0-30,13.458-30,30v17.094 c-27.848,16.381-44.97,46.059-45.097,78.43C69.554,362.635,61,372.711,61,384.75c0,5.482,1.758,10.694,5.002,15H48.5 c-15.164,0-27.5,12.337-27.5,27.5c0,15.198,12.299,27.5,27.5,27.5h415c15.163,0,27.5-12.337,27.5-27.5 C491,412.051,478.7,399.75,463.5,399.75z M441,384.75c0,8.283-6.715,15-15,15h-40v-30h40 C434.272,369.75,441,376.478,441,384.75z M421.089,359.75H386v-66.051C407.844,308.809,420.805,333.356,421.089,359.75z M191,169.75c0-35.841,29.159-65,65-65c35.841,0,65,29.159,65,65s-29.159,65-65,65C220.159,234.75,191,205.591,191,169.75z M136,264.75c0-11.028,8.972-20,20-20h200c11.028,0,20,8.972,20,20c0,14.357,0,119.664,0,135H136 C136,384.408,136,279.12,136,264.75z M126,293.699v66.051H90.911C91.194,333.407,104.117,308.835,126,293.699z M71,384.75 c0-8.272,6.729-15,15-15h40v30H86C77.716,399.75,71,393.035,71,384.75z M463.5,444.75h-415c-9.672,0-17.5-7.826-17.5-17.5 c0-9.649,7.851-17.5,17.5-17.5c16.839,0,65.571,0,82.5,0c9.966,0,323.117,0,332.5,0c9.673,0,17.5,7.826,17.5,17.5 C481,436.899,473.149,444.75,463.5,444.75z"/><path d="M256,354.75c19.299,0,35-15.701,35-35s-15.701-35-35-35s-35,15.701-35,35S236.701,354.75,256,354.75z M256,294.75 c13.785,0,25,11.215,25,25s-11.215,25-25,25c-13.785,0-25-11.215-25-25S242.215,294.75,256,294.75z"/><path d="M431,154.75c22.056,0,40-17.944,40-40s-17.944-40-40-40s-40,17.944-40,40S408.944,154.75,431,154.75z M431,84.75 c16.542,0,30,13.458,30,30s-13.458,30-30,30s-30-13.458-30-30S414.458,84.75,431,84.75z"/><path d="M86,179.75c16.542,0,30-13.458,30-30s-13.458-30-30-30s-30,13.458-30,30S69.458,179.75,86,179.75z M86,129.75 c11.028,0,20,8.972,20,20s-8.972,20-20,20s-20-8.972-20-20S74.972,129.75,86,129.75z"/></svg>