<svg xmlns="http://www.w3.org/2000/svg" xmlns:xlink="http://www.w3.org/1999/xlink" viewBox="0,0,256,256" width="100px" height="100px" fill-rule="nonzero"><g fill-opacity="0" fill="#dddddd" fill-rule="nonzero" stroke="none" stroke-width="1" stroke-linecap="butt" stroke-linejoin="miter" stroke-miterlimit="10" stroke-dasharray="" stroke-dashoffset="0" font-family="none" font-weight="none" font-size="none" text-anchor="none" style="mix-blend-mode: normal"><path d="M0,256v-256h256v256z" id="bgRectangle"></path></g><g fill="#ffffff" fill-rule="nonzero" stroke="none" stroke-width="1" stroke-linecap="butt" stroke-linejoin="miter" stroke-miterlimit="10" stroke-dasharray="" stroke-dashoffset="0" font-family="none" font-weight="none" font-size="none" text-anchor="none" style="mix-blend-mode: normal"><g transform="scale(4,4)"><path d="M40,2c-3.8,0 -7.39922,1.4 -10.19922,4h-2.80078c-3.3,0 -6,2.7 -6,6c0,1.5 0.6,2.9 1.5,4c-1.4,0 -2.60039,0.90078 -2.90039,2.30078l-0.40039,1.69922h-3.19922v-0.30078c0,-1.5 -1.09961,-2.8 -2.59961,-3l-3.90039,-0.59961c-1.2,-0.1 -2.5,0.60117 -3,1.70117l-2.09961,4.29883c-0.3,0.4 -0.40039,0.90039 -0.40039,1.40039v12.5c0,1.6 0.60078,3.09922 1.80078,4.19922l3.09961,3.10156c0.7,0.7 1.09961,1.69883 1.09961,2.79883v14.90039c0,0.6 0.4,1 1,1h9h40c0.5,0 1,-0.40039 1,-0.90039l1,-14.09961c0,-3.5 -10.6,-6.50078 -16,-7.80078v-2.69922l3.30078,-1.80078c0.1,0 0.09922,-0.09961 0.19922,-0.09961c1.6,-1.3 2.5,-3.30039 2.5,-5.40039v-2.19922h0.5c1.9,0 3.5,-1.6 3.5,-3.5c0,-1.1 -0.50039,-2.10078 -1.40039,-2.80078c0.2,-1.1 0.40039,-2.39922 0.40039,-3.69922c0,-8.3 -6.7,-15 -15,-15zM40,4c7.2,0 13,5.8 13,13c0,1.1 -0.10078,2.1 -0.30078,3h-0.19922h-1.09961l-4.40039,-3.5v-4.5c0,-3.3 -2.7,-6 -6,-6h-7.90039c2,-1.3 4.40039,-2 6.90039,-2zM27,8h14c2.2,0 4,1.8 4,4v4h-17.59961h-0.40039c-2.2,0 -4,-1.8 -4,-4c0,-2.2 1.8,-4 4,-4zM22.59961,18h4.40039h0.40039c0.5,0 0.9,0.30078 1,0.80078l0.29883,1.19922h-7.39844l0.29883,-1.19922c0.1,-0.4 0.5,-0.80078 1,-0.80078zM30.30078,18h15.39844l4.40039,3.5v7.69922h-0.09961c0,1.5 -0.59922,2.80078 -1.69922,3.80078l-4.60156,2.5c-0.6,0.3 -1.3,0.5 -2,0.5h-1.69922v-15c0,-0.6 -0.4,-1 -1,-1h-8.19922l-0.40039,-1.69922c0,-0.1 -0.09961,-0.20078 -0.09961,-0.30078zM8.90234,18.2793c0.09687,-0.01094 0.19687,-0.00352 0.29688,0.02148l3.90039,0.59961c0.5,0.1 0.90039,0.5 0.90039,1v0.09961h-1h-3v2h2v2h-2v2h2v2h-2v2h2v0.5c0,0.8 -0.7,1.5 -1.5,1.5h-0.5v2h0.5c0.2,0 0.3,0.00039 0.5,-0.09961v3.09961c0,0.6 0.4,1 1,1h3.30078l2.69922,12.19922h0.19922l0.70117,9.80078h-6.90039v-13.90039c0,-1.6 -0.60078,-3.09883 -1.80078,-4.29883l-3.09961,-3.10156c-0.7,-0.7 -1.09961,-1.69883 -1.09961,-2.79883v-12.40039c0,-0.2 -0.00039,-0.30039 0.09961,-0.40039l2.09961,-4.29883c0.15,-0.3 0.4125,-0.48867 0.70313,-0.52148zM14,22h1h6.09961c-2.2,1.2 -3.79961,3.4 -4.09961,6c-0.8,0.1 -1.5,0.4 -2,1c-0.6,0.6 -0.79922,1.50039 -0.69922,2.40039l0.59961,4.59961h-1.90039v-3h-0.09961c0.7,-0.6 1.09961,-1.5 1.09961,-2.5zM28.90039,22h9.09961v14h-2.80078l0.5,-5c0.1,-1 -0.19844,-2.00078 -0.89844,-2.80078c-0.6,-0.6 -1.3,-0.99961 -2,-1.09961c-0.5,-2.2 -2.00039,-3.99961 -3.90039,-5.09961zM52,22h0.5c0.8,0 1.5,0.7 1.5,1.5c0,0.8 -0.7,1.5 -1.5,1.5h-0.5zM45,22.19922c-1,0 -1.80078,0.80078 -1.80078,1.80078c0,1 0.80078,1.80078 1.80078,1.80078c1,0 1.80078,-0.80078 1.80078,-1.80078c0,-1 -0.80078,-1.80078 -1.80078,-1.80078zM25,23c3.3,0 6,2.7 6,6c0,3.3 -2.7,6 -6,6c-3.3,0 -6,-2.7 -6,-6c0,-3.3 2.7,-6 6,-6zM45,23.80078c0.1,0 0.19922,0.09922 0.19922,0.19922c0,0.3 -0.39844,0.3 -0.39844,0c0,-0.1 0.09922,-0.19922 0.19922,-0.19922zM25,25c-2.2,0 -4,1.8 -4,4c0,2.2 1.8,4 4,4c2.2,0 4,-1.8 4,-4c0,-2.2 -1.8,-4 -4,-4zM25,27c1.1,0 2,0.9 2,2c0,1.1 -0.9,2 -2,2c-1.1,0 -2,-0.9 -2,-2c0,-1.1 0.9,-2 2,-2zM33,29.30078l0.30078,0.29883c0.3,0.3 0.49844,0.80078 0.39844,1.30078l-0.59961,6c0,0.5 -0.19961,0.89922 -0.59961,1.19922c-1,1 -1.4,2.50039 -1,3.90039l3.19922,11.19922l-1.59961,-0.19922l-0.19922,2l17.09961,1.90039v3.09961h-21.19922l-2.30078,-13.30078c-0.4,-2.1 -1.2,-3.99922 -2.5,-5.69922c-0.9,-1.2 -2.10039,-2.20039 -3.40039,-2.90039l-3.19922,-1.59961c-0.3,-0.1 -0.4,-0.39961 -0.5,-0.59961v-0.20117l-0.59961,-4.59961c0,-0.3 -0.00078,-0.59883 0.19922,-0.79883c0.1,-0.2 0.29961,-0.30078 0.59961,-0.30078c0.5,3.9 3.90039,7 7.90039,7c4.3,0 7.8,-3.39922 8,-7.69922zM44,37.5v4c-2.3,2 -5.7,2 -8,0v-3.5h3h2.69922c0.8,0 1.60078,-0.2 2.30078,-0.5zM17.5,38.90039l2.19922,1.09961c1.1,0.5 2.00117,1.30078 2.70117,2.30078c0.1,0.2 0.20039,0.4 0.40039,0.5c-1.8,0.8 -3.10039,1.49883 -3.90039,2.29883zM34,39.40039v2.59961c0,0.3 0.10078,0.49922 0.30078,0.69922c1.6,1.6 3.59922,2.40039 5.69922,2.40039c2.1,0 4.09922,-0.80039 5.69922,-2.40039c0.2,-0.2 0.30078,-0.39922 0.30078,-0.69922v-0.69922c8.7,2.1 14,4.69922 14,5.69922l-0.90039,13h-7.09961v-8h-2v2.90039l-13.09961,-1.5l-3.40039,-12c-0.2,-0.7 0,-1.4 0.5,-2zM23.80078,44.5c0.4,0.8 0.59883,1.7 0.79883,2.5l2.20117,13h-5.90039l-0.90039,-13c0,0 0.10078,-0.9 3.80078,-2.5z"></path></g></g></svg>