<svg xmlns="http://www.w3.org/2000/svg" xmlns:xlink="http://www.w3.org/1999/xlink" viewBox="0,0,256,256" width="100px" height="100px" fill-rule="nonzero"><g fill-opacity="0" fill="#dddddd" fill-rule="nonzero" stroke="none" stroke-width="1" stroke-linecap="butt" stroke-linejoin="miter" stroke-miterlimit="10" stroke-dasharray="" stroke-dashoffset="0" font-family="none" font-weight="none" font-size="none" text-anchor="none" style="mix-blend-mode: normal"><path d="M0,256v-256h256v256z" id="bgRectangle"></path></g><g fill="#ffffff" fill-rule="nonzero" stroke="none" stroke-width="1" stroke-linecap="butt" stroke-linejoin="miter" stroke-miterlimit="10" stroke-dasharray="" stroke-dashoffset="0" font-family="none" font-weight="none" font-size="none" text-anchor="none" style="mix-blend-mode: normal"><g transform="scale(10.66667,10.66667)"><path d="M12,3c-2.20914,0 -4,1.79086 -4,4c0,2.20914 1.79086,4 4,4c2.20914,0 4,-1.79086 4,-4c0,-2.20914 -1.79086,-4 -4,-4zM12,14c-3.141,0 -9,1.546 -9,4.5v1.5c0,0.552 0.448,1 1,1h8.55469c0.396,0 0.77469,-0.1575 1.05469,-0.4375l4.45117,-4.45117c0.263,-0.263 0.19061,-0.71823 -0.15039,-0.86523c-1.899,-0.823 -4.27116,-1.24609 -5.91016,-1.24609zM22.20703,15c-0.12787,0 -0.25602,0.04898 -0.35352,0.14648l-1,1l2,2l1,-1c0.195,-0.195 0.195,-0.51203 0,-0.70703l-1.29297,-1.29297c-0.098,-0.0975 -0.22564,-0.14648 -0.35352,-0.14648zM20.14648,16.85352l-5.14648,5.14648v2h2l5.14648,-5.14648z"></path></g></g></svg>